<?xml version="1.0" encoding="utf-8"?>
<!-- Generator: Adobe Illustrator 25.0.1, SVG Export Plug-In . SVG Version: 6.00 Build 0)  -->
<svg version="1.1" xmlns="http://www.w3.org/2000/svg" xmlns:xlink="http://www.w3.org/1999/xlink" x="0px" y="0px"
	 viewBox="0 0 35 35" style="enable-background:new 0 0 35 35;" xml:space="preserve">
<style type="text/css">
	.st0{fill:#F7F6F5;}
	.st1{fill:#494949;}
	.st2{fill:#FFFFFF;}
	.st3{fill:#FFC4BA;}
	.st4{fill:#010201;}
	.st5{fill-rule:evenodd;clip-rule:evenodd;fill:#FFFFFF;}
	.st6{fill-rule:evenodd;clip-rule:evenodd;fill:#010201;}
	.st7{fill:#FEFEFE;}
	.st8{fill:#75CCBB;}
	.st9{fill-rule:evenodd;clip-rule:evenodd;}
	.st10{fill:url(#SVGID_1_);}
</style>
<g id="Background">
</g>
<g id="Graphic_Elements">
	<g>
		<circle class="st1" cx="17.5" cy="17.5" r="17.5"/>
		<g>
			<g>
				<path class="st2" d="M17.5,8.47c2.94,0,3.29,0.01,4.45,0.06c1.07,0.05,1.66,0.23,2.05,0.38c0.51,0.2,0.88,0.44,1.27,0.82
					c0.39,0.39,0.62,0.75,0.82,1.27c0.15,0.39,0.33,0.97,0.38,2.05c0.05,1.16,0.06,1.51,0.06,4.45s-0.01,3.29-0.06,4.45
					c-0.05,1.07-0.23,1.66-0.38,2.05c-0.2,0.51-0.44,0.88-0.82,1.27c-0.39,0.39-0.75,0.62-1.27,0.82c-0.39,0.15-0.97,0.33-2.05,0.38
					c-1.16,0.05-1.51,0.06-4.45,0.06c-2.94,0-3.29-0.01-4.45-0.06c-1.07-0.05-1.66-0.23-2.05-0.38c-0.51-0.2-0.88-0.44-1.27-0.82
					C9.35,24.88,9.11,24.51,8.91,24c-0.15-0.39-0.33-0.97-0.38-2.05c-0.05-1.16-0.06-1.51-0.06-4.45s0.01-3.29,0.06-4.45
					c0.05-1.07,0.23-1.66,0.38-2.05c0.2-0.51,0.44-0.88,0.82-1.27c0.39-0.39,0.75-0.62,1.27-0.82c0.39-0.15,0.97-0.33,2.05-0.38
					C14.21,8.48,14.56,8.47,17.5,8.47 M17.5,6.48c-2.99,0-3.37,0.01-4.54,0.07c-1.17,0.05-1.97,0.24-2.67,0.51
					C9.56,7.34,8.94,7.72,8.33,8.33c-0.61,0.61-0.99,1.23-1.27,1.95c-0.27,0.7-0.46,1.5-0.51,2.67c-0.05,1.18-0.07,1.55-0.07,4.54
					c0,2.99,0.01,3.37,0.07,4.54c0.05,1.17,0.24,1.97,0.51,2.67c0.28,0.72,0.66,1.34,1.27,1.95c0.61,0.61,1.23,0.99,1.95,1.27
					c0.7,0.27,1.5,0.46,2.67,0.51c1.18,0.05,1.55,0.07,4.54,0.07c2.99,0,3.37-0.01,4.54-0.07c1.17-0.05,1.97-0.24,2.67-0.51
					c0.72-0.28,1.34-0.66,1.95-1.27c0.61-0.61,0.99-1.23,1.27-1.95c0.27-0.7,0.46-1.5,0.51-2.67c0.05-1.18,0.07-1.55,0.07-4.54
					s-0.01-3.37-0.07-4.54c-0.05-1.17-0.24-1.97-0.51-2.67c-0.28-0.72-0.66-1.34-1.27-1.95c-0.61-0.61-1.23-0.99-1.95-1.27
					c-0.7-0.27-1.5-0.46-2.67-0.51C20.87,6.49,20.49,6.48,17.5,6.48L17.5,6.48z"/>
				<path class="st2" d="M17.5,11.84c-3.12,0-5.66,2.53-5.66,5.66s2.53,5.66,5.66,5.66c3.12,0,5.66-2.53,5.66-5.66
					S20.62,11.84,17.5,11.84z M17.5,21.17c-2.03,0-3.67-1.64-3.67-3.67s1.64-3.67,3.67-3.67s3.67,1.64,3.67,3.67
					S19.53,21.17,17.5,21.17z"/>
				<circle class="st2" cx="23.38" cy="11.62" r="1.32"/>
			</g>
		</g>
	</g>
</g>
</svg>
