<?xml version="1.0" encoding="utf-8"?>
<!-- Generator: Adobe Illustrator 25.0.1, SVG Export Plug-In . SVG Version: 6.00 Build 0)  -->
<svg version="1.1" xmlns="http://www.w3.org/2000/svg" xmlns:xlink="http://www.w3.org/1999/xlink" x="0px" y="0px"
	 viewBox="0 0 35 35" style="enable-background:new 0 0 35 35;" xml:space="preserve">
<style type="text/css">
	.st0{fill:#F7F6F5;}
	.st1{fill:#5C5D5E;}
	.st2{fill:#FFFFFF;}
	.st3{fill:#FFC4BA;}
	.st4{fill:#010201;}
	.st5{fill-rule:evenodd;clip-rule:evenodd;fill:#FFFFFF;}
	.st6{fill-rule:evenodd;clip-rule:evenodd;fill:#010201;}
	.st7{fill:#FEFEFE;}
	.st8{fill:#75CCBB;}
	.st9{fill-rule:evenodd;clip-rule:evenodd;}
	.st10{fill:url(#SVGID_1_);}
</style>
<g id="Background">
</g>
<g id="Graphic_Elements">
	<g>
		<circle class="st8" cx="17.5" cy="17.5" r="17.5"/>
		<g>
			<g>
				<path class="st7" d="M18.85,15.11c0.29-0.32,0.52-0.65,0.82-0.93c0.91-0.86,1.98-1.29,3.23-1.28c0.69,0.01,1.37,0.06,2.03,0.25
					c1.52,0.44,2.4,1.48,2.82,2.97c0.32,1.11,0.37,2.26,0.38,3.4c0,2.42-0.01,4.83,0,7.25c0,0.23-0.06,0.29-0.29,0.28
					c-1.25-0.01-2.49-0.01-3.74,0c-0.22,0-0.27-0.07-0.27-0.27c0.01-2.3,0.01-4.6,0-6.9c0-0.58-0.04-1.15-0.2-1.71
					c-0.3-1.03-1.04-1.56-2.12-1.5c-1.48,0.08-2.24,0.81-2.43,2.31c-0.04,0.36-0.07,0.72-0.07,1.08c0,2.24,0,4.47,0.01,6.71
					c0,0.22-0.06,0.29-0.28,0.29c-1.25-0.01-2.51-0.01-3.76,0c-0.2,0-0.26-0.05-0.26-0.26c0.01-4.43,0.01-8.86,0-13.29
					c0-0.22,0.07-0.27,0.28-0.27c1.19,0.01,2.38,0.01,3.57,0c0.22,0,0.28,0.07,0.27,0.28C18.85,14.05,18.85,14.58,18.85,15.11z"/>
				<path class="st7" d="M12.03,20.17c0,2.19,0,4.38,0.01,6.57c0,0.24-0.06,0.32-0.31,0.31c-1.24-0.01-2.49-0.01-3.73,0
					c-0.2,0-0.26-0.05-0.26-0.25c0.01-4.44,0.01-8.87,0-13.31c0-0.18,0.04-0.25,0.24-0.25c1.26,0.01,2.53,0.01,3.79,0
					c0.24,0,0.28,0.09,0.28,0.3C12.03,15.76,12.03,17.97,12.03,20.17z"/>
				<path class="st7" d="M12.37,8.85c0,1.38-1.12,2.5-2.49,2.5c-1.35,0-2.48-1.12-2.49-2.48c0-1.37,1.12-2.5,2.49-2.5
					C11.25,6.38,12.37,7.5,12.37,8.85z"/>
			</g>
		</g>
	</g>
</g>
</svg>
